<svg xmlns="http://www.w3.org/2000/svg" version="1.1" xmlns:xlink="http://www.w3.org/1999/xlink" xmlns:svgjs="http://svgjs.dev/svgjs" width="1000" height="189" viewBox="0 0 1000 189"><g transform="matrix(1,0,0,1,-0.6060606060606233,-0.21971741173366865)"><svg viewBox="0 0 396 75" data-background-color="#ffffff" preserveAspectRatio="xMidYMid meet" height="189" width="1000" xmlns="http://www.w3.org/2000/svg" xmlns:xlink="http://www.w3.org/1999/xlink"><g id="tight-bounds" transform="matrix(1,0,0,1,0.2400000000000091,0.08718944910066284)"><svg viewBox="0 0 395.52 74.82561925691436" height="74.82561925691436" width="395.52"><g><svg viewBox="0 0 653.6990281341394 123.66867563657986" height="74.82561925691436" width="395.52"><g transform="matrix(1,0,0,1,258.17902813413946,32.71729895339172)"><svg viewBox="0 0 395.52 58.234077729796425" height="58.234077729796425" width="395.52"><g id="textblocktransform"><svg viewBox="0 0 395.52 58.234077729796425" height="58.234077729796425" width="395.52" id="textblock"><g><svg viewBox="0 0 395.52 58.234077729796425" height="58.234077729796425" width="395.52"><g transform="matrix(1,0,0,1,0,0)"><svg width="395.52" viewBox="0 -35.79999923706055 243.1300048828125 35.79999923706055" height="58.234077729796425" data-palette-color="#FAFAFA"><path d="M26.7-2.15L31.55-2.15 31.55 0 0 0 0-2.15 4.85-2.15 4.85-34.95 10.75-34.95 10.75-5.6 26.7-5.6 26.7-2.15ZM28.3-2.15L33.15-2.15 33.15-34.95 39.05-34.95 39.05-2.15 43.9-2.15 43.9 0 28.3 0 28.3-2.15ZM43.9-2.15L48.75-2.15 48.75-34.95 54.65-34.95 74.95-8.85 74.95-34.95 80.84-34.95 80.84-2.15 85.7-2.15 85.7 0 74.45 0 54.65-25.5 54.65 0 43.9 0 43.9-2.15ZM85.69-2.15L90.54-2.15 90.54-34.95 96.44-34.95 96.44-17.9 112.44-34.95 119.94-34.95 105.89-19.65 118.59-2.1 118.59-2.15 123.44-2.15 123.44 0 113.14 0 101.54-15.3 96.44-9.8 96.44 0 85.69 0 85.69-2.15ZM142.54-2.15L155.89-2.15 155.89 0 120.89 0 120.89-2.15 134.19-2.15 121.04-34.95 127.64-34.95 138.39-8.85 149.14-34.95 155.74-34.95 142.54-2.15ZM155.89-2.15L160.74-2.15 160.74-34.95 166.64-34.95 166.64-2.15 171.49-2.15 171.49 0 155.89 0 155.89-2.15ZM201.74-2.15L208.29-2.15 208.29 0 171.49 0 171.49-2.15 182.59-2.15Q178.64-4.5 176.36-8.55 174.09-12.6 174.09-17.7L174.09-17.7Q174.09-25.4 179.41-30.6 184.74-35.8 192.86-35.8 200.99-35.8 206.44-29.8L206.44-29.8 202.69-25.7Q200.19-28.1 197.96-29.05 195.74-30 192.74-30L192.74-30Q187.44-30 183.84-26.58 180.24-23.15 180.24-17.82 180.24-12.5 183.81-8.93 187.39-5.35 192.29-5.35L192.29-5.35Q195.34-5.35 197.54-6.38 199.74-7.4 202.14-9.65L202.14-9.65 205.94-5.75Q203.74-3.35 201.74-2.15L201.74-2.15ZM208.28-2.15L213.13-2.15 213.13-34.95 237.68-34.95 237.68-29.4 219.03-29.4 219.03-20.15 235.78-20.15 235.78-14.9 219.03-14.9 219.03-5.55 238.28-5.55 238.28-2.15 243.13-2.15 243.13 0 208.28 0 208.28-2.15Z" opacity="1" transform="matrix(1,0,0,1,0,0)" fill="#FAFAFA" class="wordmark-text-0" data-fill-palette-color="primary" id="text-0"></path></svg></g></svg></g></svg></g></svg></g><g><svg viewBox="0 0 244.43136 123.66867563657986" height="123.66867563657986" width="244.43136"><g><svg xmlns="http://www.w3.org/2000/svg" xmlns:xlink="http://www.w3.org/1999/xlink" version="1.1" x="0" y="0" viewBox="0.4979991912841797 0.9549986124038696 99.00297546386719 50.09000015258789" enable-background="new 0 0 100 52" xml:space="preserve" height="123.66867563657986" width="244.43136" class="icon-icon-0" data-fill-palette-color="accent" id="icon-0"><path fill="none" d="M47.807 33.138c0.008-0.009 0.016-0.019 0.024-0.026-0.009 0.007-0.018 0.015-0.026 0.023C47.805 33.136 47.806 33.137 47.807 33.138z"></path><path fill="none" d="M53.048 49.8c-0.274-0.071-0.545-0.152-0.815-0.232-0.002 0.001-0.005 0.003-0.007 0.003C52.485 49.648 52.76 49.726 53.048 49.8z"></path><path fill="none" d="M36.33 35.501h-0.004c0.204 0.522 0.496 1.114 0.783 1.651h0.013C36.838 36.612 36.574 36.062 36.33 35.501z"></path><path fill="#FAFAFA" d="M37.108 37.152c0.291 0.544 0.577 1.029 0.758 1.332-0.263-0.436-0.508-0.882-0.746-1.332H37.108z" data-fill-palette-color="accent"></path><path fill="#FAFAFA" d="M38.062 38.804h0.006c-0.048-0.079-0.1-0.152-0.147-0.231C38.008 38.717 38.062 38.804 38.062 38.804z" data-fill-palette-color="accent"></path><path fill="#FAFAFA" d="M51.812 49.445c-0.631-0.197-1.249-0.424-1.856-0.669-0.003 0.002-0.007 0.003-0.009 0.004C50.007 48.805 50.728 49.104 51.812 49.445z" data-fill-palette-color="accent"></path><path fill="#FAFAFA" d="M52.226 49.57c0.002 0 0.005-0.002 0.007-0.003-0.106-0.03-0.213-0.057-0.318-0.091C52.016 49.509 52.12 49.541 52.226 49.57z" data-fill-palette-color="accent"></path><path fill="#FAFAFA" d="M74.458 0.955H59.321c-1.307 0-2.591 0.1-3.845 0.293-0.273 0.042-0.541 0.101-0.811 0.151 4.646 2.666 8.469 6.605 10.987 11.343h1.238 8.346c7.322 0 13.257 5.937 13.257 13.259 0 7.321-5.936 13.258-13.257 13.258h-9.516-1.958-1.905-0.006-3.171c-3.305 0-6.324-1.212-8.646-3.212 0 0-0.003 0.003-0.003 0.003 0-0.002-0.001-0.002-0.002-0.003-0.494-0.414-0.886-0.802-1.206-1.148-0.7-0.764-1.011-1.303-1.011-1.303 0.001-0.002 0.002-0.002 0.002-0.003-0.001-0.001-0.002-0.002-0.002-0.003-1.505-2.15-2.389-4.766-2.389-7.589 0-2.746 0.834-5.296 2.263-7.413 0.041-0.06 0.086-0.117 0.127-0.176-1.736-1.473-3.978-2.367-6.429-2.367h-5.041c-1.325 3.052-2.067 6.416-2.067 9.956 0 3.538 0.737 6.903 2.061 9.955 0.244 0.561 0.509 1.111 0.792 1.651 0.237 0.45 0.482 0.896 0.746 1.332 0.02 0.033 0.036 0.059 0.054 0.088 0.047 0.079 0.099 0.152 0.147 0.231 2.792 4.463 6.948 7.98 11.888 9.973 0.608 0.245 1.226 0.472 1.856 0.669 0.034 0.011 0.068 0.022 0.103 0.031 0.105 0.034 0.212 0.061 0.318 0.091 0.27 0.08 0.541 0.161 0.815 0.232 0.004 0 0.006 0.002 0.01 0.003 2 0.513 4.096 0.787 6.254 0.787h15.137c13.832 0 25.044-11.213 25.044-25.044C99.502 12.169 88.29 0.955 74.458 0.955z" data-fill-palette-color="accent"></path><path fill="#FAFAFA" d="M25.542 51.045h15.137c1.308 0 2.592-0.101 3.846-0.294 0.273-0.042 0.542-0.1 0.811-0.151-4.646-2.665-8.47-6.604-10.987-11.342H33.11h-8.346c-7.322 0-13.257-5.936-13.257-13.259 0-7.322 5.935-13.257 13.257-13.257h9.516 1.957 1.905 0.007 3.17c3.304 0 6.323 1.212 8.645 3.212l0.002-0.003c0.001 0.001 0.001 0.002 0.002 0.003 0.495 0.413 0.887 0.801 1.206 1.148 0.701 0.762 1.011 1.302 1.011 1.302 0 0.001-0.001 0.002-0.002 0.003 0.001 0 0.002 0.001 0.003 0.003 1.505 2.15 2.39 4.766 2.39 7.588 0 2.746-0.835 5.297-2.264 7.412-0.041 0.062-0.085 0.118-0.127 0.176 1.736 1.474 3.979 2.369 6.429 2.369h5.042c1.324-3.053 2.065-6.417 2.065-9.957 0-3.539-0.737-6.903-2.061-9.955-0.244-0.561-0.509-1.111-0.792-1.651-0.237-0.451-0.482-0.898-0.746-1.332-0.02-0.033-0.036-0.06-0.053-0.089-0.048-0.078-0.099-0.153-0.147-0.23-2.792-4.463-6.949-7.981-11.888-9.973-0.608-0.245-1.226-0.471-1.856-0.67-0.034-0.011-0.068-0.021-0.103-0.032-0.105-0.032-0.212-0.059-0.318-0.089-0.27-0.081-0.541-0.162-0.816-0.232-0.004-0.001-0.006-0.001-0.009-0.002-2-0.515-4.095-0.788-6.255-0.788H25.542c-13.832 0-25.044 11.212-25.044 25.044C0.498 39.832 11.71 51.045 25.542 51.045z" data-fill-palette-color="accent"></path><path fill="#FAFAFA" d="M53.058 49.803c-0.003-0.001-0.006-0.003-0.01-0.003C53.052 49.8 53.055 49.802 53.058 49.803z" data-fill-palette-color="accent"></path><path fill="#FAFAFA" d="M51.812 49.445c0.034 0.011 0.068 0.022 0.103 0.031C51.881 49.468 51.847 49.456 51.812 49.445z" data-fill-palette-color="accent"></path><path fill="#FAFAFA" d="M47.805 33.141c0 0 0.311 0.539 1.011 1.303 0.005-0.006 0.01-0.012 0.016-0.015-0.369-0.407-0.709-0.84-1.025-1.291C47.807 33.139 47.806 33.139 47.805 33.141z" data-fill-palette-color="accent"></path><path fill="#FAFAFA" d="M37.92 38.572c-0.018-0.029-0.034-0.055-0.054-0.088C37.885 38.514 37.902 38.542 37.92 38.572z" data-fill-palette-color="accent"></path><path fill="#FAFAFA" d="M48.832 34.429c-0.006 0.003-0.011 0.009-0.016 0.015 0.319 0.347 0.711 0.734 1.206 1.148 0.001-0.002 0.002-0.003 0.002-0.003C49.604 35.227 49.204 34.84 48.832 34.429z" data-fill-palette-color="accent"></path><path fill="#FAFAFA" d="M50.027 35.592c0.001-0.003 0.004-0.006 0.012-0.015-0.004 0.004-0.01 0.008-0.015 0.012C50.025 35.589 50.026 35.59 50.027 35.592z" data-fill-palette-color="accent"></path><rect x="50.022" y="35.59" fill="#FAFAFA" width="0.004" height="0.004" data-fill-palette-color="accent"></rect></svg></g></svg></g></svg></g><defs></defs></svg><rect width="395.52" height="74.82561925691436" fill="none" stroke="none" visibility="hidden"></rect></g></svg></g></svg>